<svg width="12" height="8" viewBox="0 0 12 8" version="1.1" xmlns="http://www.w3.org/2000/svg" xmlns:xlink="http://www.w3.org/1999/xlink">
<title>separator</title>
<desc>Created using Figma</desc>
<g id="Canvas" transform="translate(-1580 -1655)">
<g id="separator">
<mask id="mask0_alpha" mask-type="alpha">
<g id="Rectangle 2">
<use xlink:href="#path0_fill" transform="translate(1580 1655)" fill="#C4C4C4"/>
</g>
</mask>
<g id="Path 870.1" mask="url(#mask0_alpha)">
<use xlink:href="#path1_stroke" transform="translate(1496 1656)" fill="#CFD8DC"/>
</g>
</g>
</g>
<defs>
<path id="path0_fill" d="M 0 0L 12 0L 12 8L 0 8L 0 0Z"/>
<path id="path1_stroke" d="M 113.592 5.37132L 113.238 5.72487L 113.592 5.37132ZM 115.006 5.37132L 115.36 5.72487L 115.006 5.37132ZM 107.542 0.735987L 107.189 0.382433L 107.542 0.735987ZM 108.957 0.735987L 108.603 1.08954L 108.957 0.735987ZM 101.489 5.37559L 101.842 5.02203L 101.489 5.37559ZM 102.903 5.37559L 103.256 5.72914L 102.903 5.37559ZM 95.4343 0.735501L 95.0808 0.381947L 95.4343 0.735501ZM 96.8485 0.735501L 96.495 1.08905L 96.8485 0.735501ZM 89.3847 5.37713L 89.7367 5.02201L 89.3847 5.37713ZM 90.7958 5.37399L 90.4423 5.02044L 90.7958 5.37399ZM 83.2961 0.76L 83.6536 1.10953L 83.2961 0.76ZM 84.7151 0.748817L 84.3632 1.10394L 84.7151 0.748817ZM 77.3189 5.42744L 77.6724 5.07388L 77.3189 5.42744ZM 78.741 5.41939L 78.3835 5.06986L 78.741 5.41939ZM 71.1843 0.707107L 70.8308 0.353554L 71.1843 0.707107ZM 72.5985 0.707107L 72.245 1.06066L 72.5985 0.707107ZM 65.0728 5.40441L 65.4264 5.05085L 65.0728 5.40441ZM 66.487 5.40441L 66.8406 5.75796L 66.487 5.40441ZM 52.9882 5.37869L 52.6347 5.73225L 52.9882 5.37869ZM 47.0108 0.815508L 46.6573 0.461955L 47.0108 0.815508ZM 48.425 0.815508L 48.0715 1.16906L 48.425 0.815508ZM 41.0733 5.3388L 41.4269 4.98525L 41.0733 5.3388ZM 42.4875 5.3388L 42.8411 5.69235L 42.8411 5.69235L 42.4875 5.3388ZM 35.0748 0.754519L 34.7213 0.400966L 35.0748 0.754519ZM 36.489 0.754519L 36.1355 1.10807L 36.489 0.754519ZM 29.0399 5.37523L 29.3934 5.02168L 29.0399 5.37523ZM 30.4541 5.37523L 30.8077 5.72878L 30.4541 5.37523ZM 23.0228 0.772321L 22.6692 0.418768L 23.0228 0.772321ZM 24.437 0.772321L 24.7905 0.418768L 24.437 0.772321ZM 17.0527 5.32812L 16.6992 5.68168L 17.0527 5.32812ZM 18.467 5.32812L 18.8205 5.68167L 18.467 5.32812ZM 12.4857 0.761048L 12.1321 1.1146L 12.4857 0.761048ZM 5.27105 5.31181L 4.9175 5.66537L 5.27105 5.31181ZM -0.353553 0.394316L 4.9175 5.66537L 5.6246 4.95826L 0.353553 -0.312791L -0.353553 0.394316ZM 7.05822 5.6456L 11.4185 1.12119L 10.6985 0.427261L 6.33818 4.95167L 7.05822 5.6456ZM 12.1321 1.1146L 16.6992 5.68168L 17.4063 4.97457L 12.8392 0.407495L 12.1321 1.1146ZM 18.8205 5.68167L 23.3763 1.12587L 22.6692 0.418768L 18.1134 4.97457L 18.8205 5.68167ZM 24.0834 1.12587L 28.6863 5.72878L 29.3934 5.02168L 24.7905 0.418768L 24.0834 1.12587ZM 30.8077 5.72878L 35.4284 1.10807L 34.7213 0.400966L 30.1005 5.02168L 30.8077 5.72878ZM 36.1355 1.10807L 40.7198 5.69235L 41.4269 4.98525L 36.8426 0.400966L 36.1355 1.10807ZM 42.8411 5.69235L 47.3644 1.16906L 46.6573 0.461955L 42.134 4.98525L 42.8411 5.69235ZM 48.0715 1.16906L 52.6347 5.73225L 53.3418 5.02514L 48.7786 0.461954L 48.0715 1.16906ZM 54.756 5.73225L 59.3712 1.11702L 58.6641 0.409916L 54.0489 5.02514L 54.756 5.73225ZM 60.0783 1.11702L 64.7192 5.75796L 65.4264 5.05085L 60.7854 0.409916L 60.0783 1.11702ZM 66.8406 5.75796L 71.5379 1.06066L 70.8308 0.353554L 66.1335 5.05085L 66.8406 5.75796ZM 72.245 1.06066L 76.9653 5.78099L 77.6724 5.07388L 72.9521 0.353554L 72.245 1.06066ZM 79.0986 5.76892L 83.6536 1.10953L 82.9386 0.410471L 78.3835 5.06986L 79.0986 5.76892ZM 84.3632 1.10394L 89.0328 5.73225L 89.7367 5.02201L 85.0671 0.393697L 84.3632 1.10394ZM 91.1494 5.72755L 95.7879 1.08905L 95.0808 0.381947L 90.4423 5.02044L 91.1494 5.72755ZM 96.495 1.08905L 101.135 5.72914L 101.842 5.02203L 97.2021 0.381948L 96.495 1.08905ZM 103.256 5.72914L 107.896 1.08954L 107.189 0.382433L 102.549 5.02203L 103.256 5.72914ZM 108.603 1.08954L 113.238 5.72487L 113.946 5.01776L 109.31 0.382433L 108.603 1.08954ZM 115.36 5.72487L 120.649 0.435718L 119.942 -0.271389L 114.653 5.01776L 115.36 5.72487ZM 113.238 5.72487C 113.824 6.31066 114.774 6.31066 115.36 5.72487L 114.653 5.01776C 114.457 5.21303 114.141 5.21303 113.946 5.01776L 113.238 5.72487ZM 107.896 1.08954C 108.091 0.894278 108.408 0.894278 108.603 1.08954L 109.31 0.382433C 108.724 -0.203353 107.775 -0.203352 107.189 0.382433L 107.896 1.08954ZM 101.135 5.72914C 101.721 6.31493 102.671 6.31493 103.256 5.72914L 102.549 5.02203C 102.354 5.2173 102.037 5.2173 101.842 5.02203L 101.135 5.72914ZM 95.7879 1.08905C 95.9831 0.893792 96.2997 0.893792 96.495 1.08905L 97.2021 0.381948C 96.6163 -0.203839 95.6665 -0.203839 95.0808 0.381947L 95.7879 1.08905ZM 89.0328 5.73225C 89.6193 6.3136 90.5654 6.3115 91.1494 5.72755L 90.4423 5.02044C 90.2476 5.21509 89.9322 5.21579 89.7367 5.02201L 89.0328 5.73225ZM 83.6536 1.10953C 83.8476 0.911108 84.1661 0.908599 84.3632 1.10394L 85.0671 0.393697C 84.4759 -0.19232 83.5205 -0.184791 82.9386 0.410471L 83.6536 1.10953ZM 76.9653 5.78099C 77.5558 6.37147 78.5148 6.36604 79.0986 5.76892L 78.3835 5.06986C 78.1889 5.2689 77.8692 5.27071 77.6724 5.07388L 76.9653 5.78099ZM 71.5379 1.06066C 71.7331 0.865398 72.0497 0.865398 72.245 1.06066L 72.9521 0.353554C 72.3663 -0.232233 71.4165 -0.232233 70.8308 0.353554L 71.5379 1.06066ZM 64.7192 5.75796C 65.305 6.34375 66.2548 6.34375 66.8406 5.75796L 66.1335 5.05085C 65.9382 5.24612 65.6216 5.24612 65.4264 5.05085L 64.7192 5.75796ZM 59.3712 1.11702C 59.5665 0.921761 59.883 0.921761 60.0783 1.11702L 60.7854 0.409916C 60.1996 -0.17587 59.2499 -0.17587 58.6641 0.409916L 59.3712 1.11702ZM 52.6347 5.73225C 53.2204 6.31803 54.1702 6.31803 54.756 5.73225L 54.0489 5.02514C 53.8536 5.2204 53.537 5.2204 53.3418 5.02514L 52.6347 5.73225ZM 47.3644 1.16906C 47.5596 0.973799 47.8762 0.973799 48.0715 1.16906L 48.7786 0.461954C 48.1928 -0.123832 47.243 -0.123832 46.6573 0.461955L 47.3644 1.16906ZM 40.7198 5.69235C 41.3055 6.27814 42.2553 6.27814 42.8411 5.69235L 42.134 4.98525C 41.9387 5.18051 41.6221 5.18051 41.4269 4.98525L 40.7198 5.69235ZM 35.4284 1.10807C 35.6236 0.912811 35.9402 0.91281 36.1355 1.10807L 36.8426 0.400966C 36.2568 -0.184821 35.307 -0.184821 34.7213 0.400966L 35.4284 1.10807ZM 28.6863 5.72878C 29.2721 6.31457 30.2219 6.31457 30.8077 5.72878L 30.1005 5.02168C 29.9053 5.21694 29.5887 5.21694 29.3934 5.02168L 28.6863 5.72878ZM 23.3763 1.12587C 23.5716 0.930612 23.8882 0.930612 24.0834 1.12587L 24.7905 0.418768C 24.2047 -0.167019 23.255 -0.167018 22.6692 0.418768L 23.3763 1.12587ZM 16.6992 5.68168C 17.285 6.26746 18.2347 6.26746 18.8205 5.68167L 18.1134 4.97457C 17.9181 5.16983 17.6016 5.16983 17.4063 4.97457L 16.6992 5.68168ZM 11.4185 1.12119C 11.6127 0.919755 11.9343 0.916785 12.1321 1.1146L 12.8392 0.407495C 12.2458 -0.185955 11.2809 -0.177045 10.6985 0.427261L 11.4185 1.12119ZM 4.9175 5.66537C 5.51095 6.25882 6.47583 6.24991 7.05822 5.6456L 6.33818 4.95167C 6.14405 5.15311 5.82242 5.15608 5.6246 4.95826L 4.9175 5.66537Z"/>
</defs>
</svg>
